<svg width="226" height="49" viewBox="0 0 226 49" fill="none" xmlns="http://www.w3.org/2000/svg">
<g clip-path="url(#clip0_28_47)">
<path d="M189.753 22.1395C185.791 22.1395 183.01 19.2444 183.01 15.1C183.01 10.9556 185.922 8.10861 189.837 8.10861C193.752 8.10861 196.759 11.1358 196.759 15.1C196.759 19.0642 193.752 22.1395 189.753 22.1395ZM204.827 4.68497H196.723V7.58004C194.492 5.41775 191.985 4.3366 189.121 4.3366C183.106 4.3366 178.463 9.0456 178.463 15.1841C178.463 21.3226 182.879 25.6833 188.93 25.6833C191.89 25.6833 194.945 24.3498 196.628 22.3197H196.723V25.3829C196.723 29.8757 192.439 31.1731 189.801 31.1731C187.617 31.1731 185.564 30.4884 183.702 29.0588L180.969 31.99C183.834 33.9721 186.161 34.7048 189.443 34.7048C194.265 34.7048 200.96 32.5425 200.96 25.2508V8.22873H204.827V4.68497ZM166.075 21.7911C162.243 21.7911 159.331 18.848 159.331 14.8838C159.331 10.9196 162.243 7.97647 166.075 7.97647C169.906 7.97647 172.854 10.9556 172.854 14.8838C172.854 18.812 169.941 21.7911 166.075 21.7911ZM166.122 4.08434C162.399 4.08434 159.236 5.59794 157.195 8.04854V4.68497H146.764V8.22873H149.628L145.081 19.4967L140.438 8.22873H142.992V4.68497H132.334V8.22873H135.927L142.98 24.6862L140.391 30.6926H136.154V34.2363H143.35L154.008 8.24075H157.052C155.62 10.0427 154.784 12.3371 154.784 14.8958C154.784 21.0704 159.606 25.6953 166.075 25.6953C172.543 25.6953 177.413 21.0704 177.413 14.8958C177.413 8.72126 172.591 4.09635 166.122 4.09635M218.039 19.8931C216.309 21.4067 214.172 22.3077 212.263 22.3077C209.983 22.3077 208.396 20.9262 208.396 18.9441C208.396 16.962 210.126 15.4484 212.49 15.4484C214.316 15.4484 216.225 16.1331 218.039 17.4785V19.8931ZM222.312 21.5268V10.343C222.312 7.0635 220.176 4.08434 213.886 4.08434C209.518 4.08434 206.415 5.68203 204.601 8.84138L208.646 9.87448C209.601 8.27678 211.201 7.45992 213.241 7.45992C215.796 7.45992 218.015 8.49301 218.015 11.3881V14.0669C216.285 12.9858 214.053 12.3371 212.143 12.3371C207.727 12.3371 204.314 15.2322 204.314 18.9441C204.314 22.656 207.501 25.419 211.594 25.419C213.958 25.419 215.831 24.6381 218.517 22.572V25.0826H225.988V21.5389H222.3L222.312 21.5268Z" fill="#231F20"/>
<path d="M122.381 44.5553L123.813 41.2518L125.245 44.5553H122.393H122.381ZM122.739 38.5729L118.132 48.8318H120.543L121.521 46.5494H126.057L127.035 48.8318H129.506L124.899 38.5729H122.727H122.739ZM150.869 43.7624C150.869 45.5644 149.569 46.8017 147.635 46.8017H145.809V40.6632H147.635C149.569 40.6632 150.869 41.9245 150.869 43.7264V43.7504V43.7624ZM147.635 38.645H143.446V48.8318H147.635C151.013 48.8318 153.34 46.6095 153.34 43.7384V43.7144C153.34 40.8433 151.013 38.657 147.635 38.657M170.24 44.5553L171.672 41.2518L173.104 44.5553H170.252H170.24ZM172.794 38.5729H170.622L166.015 48.8318H168.426L169.404 46.5494H173.94L174.918 48.8318H177.389L172.782 38.5729H172.794ZM51.8214 46.9338C49.9834 46.9338 48.7064 45.4803 48.7064 43.7384V43.7144C48.7064 41.9725 50.0073 40.543 51.8214 40.543C52.8955 40.543 53.7429 40.9755 54.5664 41.6963L56.0702 40.0505C55.0796 39.1135 53.8623 38.4768 51.8333 38.4768C48.5393 38.4768 46.2358 40.8433 46.2358 43.7384V43.7624C46.2358 46.6815 48.5751 49 51.7378 49C53.8026 49 55.0319 48.3033 56.1418 47.1861L54.638 45.7446C53.7907 46.4653 53.0388 46.9338 51.8214 46.9338ZM73.6146 44.5553L75.0468 41.2518L76.467 44.5553H73.6146ZM73.9846 38.5729L69.3896 48.8318H71.8005L72.7791 46.5494H77.3144L78.2931 48.8318H80.7636L76.1687 38.5729H73.9846ZM101.888 44.9157L96.8519 38.645H94.6798V48.8318H97.0071V42.357L102.211 48.8318H104.216V38.645H101.888V44.9157Z" fill="#231F20"/>
<path d="M76.4552 9.35793H78.9616L76.503 16.962H76.4075L72.0393 4.64893H66.2986L61.9781 16.962H61.8827L59.2928 9.35793H61.6201V4.64893H49.9239V9.35793H52.6569L58.3022 25.3829H64.3174L68.4588 13.3702H68.5543L72.7435 25.3829H78.6632L84.2129 9.35793H86.8983V4.64893H76.4671V9.35793H76.4552ZM93.9876 12.5894C94.3934 9.77838 95.8972 8.44496 98.4036 8.44496C100.91 8.44496 102.593 9.99461 102.951 12.5894H93.9757H93.9876ZM98.6303 4.16842C91.8871 4.16842 87.0176 8.82937 87.0176 15.2322C87.0176 21.635 91.7081 25.5511 99.1793 25.5511C103.87 25.5511 107.51 23.8213 109.742 20.5418L104.276 18.9441C102.27 20.758 101.089 21.3226 99.2629 21.3226C95.3482 21.3226 94.0234 18.5597 93.9757 16.2292H109.73C110.279 8.88943 105.087 4.18044 98.6184 4.18044M38.6573 20.4937C36.0196 20.4937 34.4204 18.4155 34.4204 14.9679C34.4204 11.292 35.9242 9.22579 38.6573 9.22579C41.3904 9.22579 42.9419 11.304 42.9419 14.8357C42.9419 18.3675 41.3904 20.4937 38.6573 20.4937ZM48.0501 8.39691C43.8132 1.63373 33.9907 0 33.9907 0C33.9907 0 36.4612 2.69086 32.7972 5.52586C31.9737 5.94631 31.2099 6.47487 30.5296 7.09953C28.9303 8.44496 28.1426 10.1027 27.7845 11.6644C27.522 12.6254 27.3668 13.6825 27.3668 14.8478C27.3668 21.635 32.284 25.5631 38.6573 25.5631C45.4005 25.5631 49.9955 21.2866 49.9955 14.8478C49.9955 12.241 49.2674 10.0787 48.0262 8.39691H48.0501ZM128.683 4.3366C125.126 4.3366 122.441 6.28267 121.175 9.82643H121.08V4.64893H111.198V9.35793H114.838V20.3736H110.828V25.0826H125.985V20.3736H121.796V18.2113C121.796 14.0669 123.3 10.5232 128.85 10.5232H129.673V4.3366H128.671H128.683ZM14.7993 20.4937C12.2094 20.4937 10.5624 18.3795 10.5624 15.052C10.5624 11.7244 12.0662 9.69429 14.7038 9.69429C17.3415 9.69429 18.9407 11.6764 18.9407 14.9679C18.9407 18.4276 17.3892 20.4937 14.7993 20.4937ZM16.8402 4.3366C14.4293 4.3366 12.5198 5.20152 10.5982 7.23167V4.63692H0V9.34592H3.64016V29.5153H0V34.2243H14.7038V29.5153H10.6102V22.9924C12.5675 24.8063 14.3935 25.5391 16.7567 25.5391C22.1751 25.5391 25.9943 21.1785 25.9943 14.9559C25.9943 8.73327 22.0319 4.32459 16.8402 4.32459" fill="#231F20"/>
</g>
<defs>
<clipPath id="clip0_28_47">
<rect width="226" height="49" fill="white"/>
</clipPath>
</defs>
</svg>
